<svg width="170" height="41" viewBox="0 0 170 41" fill="none" xmlns="http://www.w3.org/2000/svg">
<g clip-path="url(#clip0_443_53116)">
<g opacity="0.3">
<path d="M11.5818 36.3776C11.9048 36.3776 12.2211 36.3317 12.524 36.2464C12.8672 36.1612 13.2306 36.0628 13.6074 35.9645C13.6478 35.9579 13.6882 35.9514 13.7219 35.9448C13.7622 35.9382 13.8026 35.9317 13.8363 35.9186C13.8968 35.8924 13.9574 35.8792 14.018 35.8727C14.0516 35.8661 14.0785 35.8596 14.1122 35.853C14.4016 35.7743 14.7044 35.7022 15.1015 35.6038C17.2953 35.0465 19.3614 34.522 21.5418 33.9712L22.2148 33.8007C21.9456 32.686 20.9294 31.9058 19.7517 31.9058C19.5565 31.9058 19.3681 31.9255 19.1864 31.9714V31.9648L11.8779 33.781C11.8577 33.781 11.8375 33.781 11.8241 33.781C11.3732 33.781 11.0098 33.427 11.0098 32.9877C11.0098 32.627 11.2588 32.3123 11.6154 32.2205L19.7181 30.1813C20.8688 29.9191 21.6697 28.9355 21.6697 27.7815C21.6697 27.5979 21.6495 27.4143 21.6091 27.2373L10.68 29.9453C10.6262 29.9584 10.5723 29.9781 10.5252 29.9912C9.14563 30.437 8.22366 31.6894 8.22366 33.1057C8.21693 34.9088 9.72439 36.3776 11.5818 36.3776Z" fill="url(#paint0_linear_443_53116)"/>
</g>
<path d="M19.9134 31.8594C19.5904 31.8594 19.2741 31.9053 18.9712 31.9905C18.628 32.0758 18.2646 32.1741 17.8877 32.2725C17.8474 32.2856 17.807 32.2856 17.7733 32.2921C17.733 32.2987 17.6926 32.3052 17.6589 32.3184C17.5984 32.338 17.5378 32.3577 17.4772 32.3643C17.4436 32.3708 17.4167 32.3774 17.383 32.3839C17.0936 32.4626 16.7975 32.5347 16.3937 32.6331C14.1998 33.197 12.1338 33.715 9.95337 34.2657L8.60742 34.6198C9.30731 35.8984 10.6129 36.4295 11.7435 36.377C11.9319 36.3705 12.1675 36.3377 12.3559 36.2918L19.624 34.4559C19.6375 34.4559 19.6577 34.4559 19.6778 34.4559C20.122 34.4559 20.4921 34.81 20.4921 35.2493C20.4921 35.6099 20.2431 35.9246 19.8865 36.0164H19.8797L11.7771 38.0556C10.6263 38.3179 9.81877 39.3014 9.81877 40.4554C9.81877 40.639 9.83896 40.8226 9.87934 40.9996L20.8084 38.2916C20.8623 38.2785 20.9161 38.2589 20.97 38.2457C22.3496 37.7999 23.2715 36.5475 23.2715 35.1312C23.2783 33.3281 21.7641 31.8594 19.9134 31.8594Z" fill="url(#paint1_linear_443_53116)"/>
<path d="M31.1722 15.1857H31.1789C31.1789 6.79946 24.2001 0 15.5928 0C6.98547 0 0 6.79946 0 15.1857C0 16.0315 0.0740271 16.8642 0.208622 17.6707C0.51819 20.5033 2.3083 24.3784 4.20609 25.5062L4.58968 25.8078C5.59241 26.5225 6.87107 26.929 8.20355 26.929C8.94383 26.929 9.64372 26.7979 10.2898 26.5684C12.1203 25.9127 13.5335 24.4177 14.0517 22.5687C14.0517 22.5884 14.045 22.608 14.0517 22.5687L14.1123 22.5818C15.115 23.2899 16.3465 23.7161 17.679 23.7161C21.0035 23.7161 23.7089 21.0934 23.7358 17.8543V15.1922V12.5105C23.7358 12.5105 23.7358 12.3269 23.7358 12.34L23.7223 9.57301C23.7223 8.92388 23.184 8.39933 22.5177 8.39933C21.8515 8.39933 21.3131 8.92388 21.3131 9.57301L21.2727 12.3138V12.5105V15.1922V17.8084H21.2391C21.2391 19.7296 19.6441 21.2835 17.679 21.2835C15.9899 21.2835 14.5834 20.1427 14.2065 18.6149V15.1922V12.517H14.1661V12.4711C14.1661 11.8286 13.6277 11.2975 12.9615 11.2975C12.2952 11.2975 11.7569 11.822 11.7569 12.4711V12.517H11.7501V13.8218V15.1922V19.6574V20.877V21.0541V21.3491C11.6223 22.6146 10.8012 23.6899 9.66391 24.1882C9.21975 24.3849 8.72174 24.4898 8.20355 24.4898C7.53731 24.4898 6.8105 24.3784 6.27885 24.0702C4.32049 22.7261 3.23028 20.064 2.73227 17.4871C2.59095 16.7396 2.51692 15.9725 2.51692 15.1857C2.51692 8.15017 8.3718 2.44571 15.5861 2.44571C22.8004 2.44571 28.6552 8.14361 28.6552 15.1726H28.6485C28.7023 16.7265 28.4533 18.3198 27.8813 19.8738C27.6525 20.4836 27.39 21.0672 27.0805 21.6245C25.3913 24.68 22.5312 26.8503 19.2605 27.7879V27.7814C19.099 27.8273 19.0452 27.847 18.924 27.8797L10.8282 29.8992C9.40145 30.2271 8.4391 31.3811 8.26412 32.522C8.2372 32.699 8.21028 32.8433 8.21028 33.0465L19.348 30.2927V30.2992C20.6401 29.9845 21.8851 29.5058 23.0494 28.8895C24.7251 27.9978 26.246 26.8044 27.4977 25.3488C28.6552 24.0046 29.6041 22.4441 30.2502 20.6934C30.9299 18.8837 31.2193 17.015 31.1722 15.1857Z" fill="url(#paint2_linear_443_53116)"/>
<path d="M98.8465 9.59277C95.7979 9.59277 93.3281 11.9991 93.3281 14.9694C93.3281 17.9396 95.8047 20.346 98.8465 20.346C101.895 20.346 104.365 17.9396 104.365 14.9694C104.365 11.9991 101.895 9.59277 98.8465 9.59277ZM98.8465 19.0937C96.5113 19.0937 94.6202 17.2512 94.6202 14.9694C94.6202 12.6942 96.5113 10.8517 98.8465 10.8517C101.182 10.8517 103.073 12.6942 103.073 14.9694C103.073 17.2446 101.182 19.0937 98.8465 19.0937Z" fill="#878381"/>
<path d="M140.793 9.47461C137.744 9.47461 135.274 11.881 135.274 14.8512C135.274 17.8215 137.744 20.2278 140.793 20.2278C143.841 20.2278 146.311 17.8215 146.311 14.8512C146.304 11.881 143.841 9.47461 140.793 9.47461ZM140.793 18.9689C138.458 18.9689 136.567 17.1199 136.567 14.8512C136.567 12.5826 138.458 10.7335 140.793 10.7335C143.128 10.7335 145.019 12.576 145.019 14.8512C145.019 17.1265 143.128 18.9689 140.793 18.9689Z" fill="#878381"/>
<path d="M107.75 18.8579V18.8054V9.25863V9.22585V9.16028C107.757 9.00292 107.757 8.93079 107.75 8.78654C107.743 8.32756 107.42 8.04562 107.01 7.92104C106.996 7.92104 106.99 7.92104 106.983 7.91448V7.90792L106.573 7.78334L106.465 7.76367V7.97349V8.85867C106.465 8.93735 106.465 9.01603 106.465 9.08816V19.0808C106.465 19.1267 106.465 19.166 106.465 19.2119V20.0971V20.3069L106.573 20.2873L106.983 20.1627V20.1561C106.99 20.1496 107.003 20.1496 107.01 20.1496C107.42 20.025 107.743 19.7496 107.75 19.2841C107.757 19.1333 107.764 19.0677 107.75 18.8972V18.8579Z" fill="#878381"/>
<path d="M121.21 11.0229H121.223C121.223 10.9114 121.223 10.7999 121.223 10.6885L121.216 9.80329V9.59347L121.109 9.61314L120.698 9.73772C120.692 9.74428 120.678 9.74428 120.671 9.75083C120.261 9.87541 119.938 10.1574 119.938 10.6163C119.938 10.6885 119.931 10.7409 119.931 10.7934H119.924V14.9701C119.924 17.2453 118.033 19.0944 115.698 19.0944C113.363 19.0944 111.472 17.2519 111.472 14.9701V10.9704V10.9442C111.485 10.7671 111.479 10.695 111.472 10.5508C111.465 10.0852 111.142 9.80985 110.725 9.69182C110.711 9.69182 110.705 9.68527 110.698 9.68527L110.287 9.56069L110.18 9.54102L110.186 9.75083V10.636C110.186 10.6885 110.186 10.7475 110.186 10.7999V14.9766C110.186 17.9469 112.656 20.3533 115.705 20.3533C117.401 20.3533 118.922 19.6058 119.931 18.4321V18.8517C119.918 19.0157 119.931 19.0878 119.931 19.232C119.938 19.6976 120.261 19.973 120.671 20.0975C120.685 20.0975 120.692 20.1041 120.705 20.1041L121.116 20.2287L121.223 20.2484L121.216 20.0385V19.1534C121.216 19.1009 121.216 19.0485 121.216 18.996V11.0229H121.21Z" fill="#878381"/>
<path d="M91.1277 9.4619C90.0038 8.4587 88.6512 7.76367 86.8341 7.76367C84.4855 7.76367 82.7357 9.25863 82.7357 11.1667C82.7357 13.2321 84.2836 13.9796 86.7467 14.5303C88.8867 15.0221 90.0442 15.5204 90.0442 16.7925C90.0442 17.8678 89.0819 18.8775 87.1975 18.8775C85.6228 18.8775 84.4249 18.2743 83.4356 17.3891C83.4289 17.3826 83.4154 17.3695 83.402 17.3629C83.3212 17.2973 83.2337 17.2449 83.1462 17.2121C82.8232 17.0744 82.48 17.1465 82.1637 17.3301C82.157 17.3367 82.1502 17.3432 82.1368 17.3498V17.3432L81.7397 17.5793L81.6455 17.6449L81.8272 17.7891L82.3185 18.2153C83.5433 19.3955 85.1315 20.1102 87.1437 20.1102C89.9971 20.1102 91.4575 18.5628 91.4575 16.6744C91.4575 14.5762 89.7818 13.7566 87.4465 13.219C85.3603 12.7338 84.149 12.301 84.149 11.0683C84.149 9.97333 85.2527 9.00292 86.7668 9.00292C87.8638 9.00292 88.9069 9.42256 89.8221 10.1438L89.95 10.2422C90.0577 10.334 90.1721 10.4258 90.273 10.5241V10.5175C90.6566 10.8388 91.1143 10.7929 91.5046 10.5569C91.518 10.5503 91.5248 10.5438 91.5315 10.5438V10.5503L91.9286 10.3143L92.0228 10.2422L91.8411 10.0979L91.1277 9.4619Z" fill="#878381"/>
<path d="M169.819 11.5728L169.213 11.0351C168.129 10.0451 166.945 9.56641 165.579 9.56641C163.594 9.56641 162.1 10.8384 162.1 12.517C162.1 14.3005 163.398 14.9561 165.498 15.4348C167.275 15.8479 168.244 16.2741 168.244 17.3363C168.244 18.1821 167.504 19.087 165.882 19.087C164.704 19.087 163.681 18.6739 162.746 17.8215C162.739 17.8149 162.732 17.8149 162.725 17.8084L162.678 17.769C162.631 17.7297 162.577 17.7035 162.524 17.6772L162.53 17.6707L162.49 17.651L162.463 17.6379C162.207 17.5395 161.925 17.5789 161.642 17.7494L161.279 17.9723L161.171 18.0575L161.353 18.2083L161.79 18.6018C162.887 19.664 164.253 20.2082 165.841 20.2082C168.055 20.2082 169.496 19.0345 169.496 17.2248C169.496 15.2971 167.867 14.648 166.104 14.2283C164.246 13.789 163.358 13.4022 163.358 12.4186C163.358 11.4613 164.327 10.6811 165.525 10.6811C166.4 10.6811 167.275 11.0155 168.069 11.6515L168.177 11.7367C168.278 11.822 168.365 11.8941 168.446 11.9793L168.473 11.999C168.776 12.235 169.146 12.2416 169.523 12.0187L169.886 11.7957L170 11.7105L169.819 11.5728Z" fill="#878381"/>
<path d="M129.884 19.9138C129.877 19.9072 129.877 19.8941 129.871 19.8876C129.77 19.4745 129.507 19.1466 129.036 19.1139C128.908 19.1008 128.834 19.0876 128.7 19.0876C126.438 19.009 124.635 17.1993 124.635 14.9765V10.8588H128.861V9.59987H124.635V9.22613C124.648 9.05565 124.642 8.98353 124.635 8.83272C124.628 8.36718 124.305 8.09179 123.888 7.96721C123.881 7.96066 123.868 7.96066 123.861 7.96066L123.45 7.83608L123.343 7.81641L123.35 8.02623L123.343 8.9114C123.343 8.93763 123.343 8.96386 123.343 8.99664V9.60643V10.8653V14.983C123.343 17.9074 125.739 20.2875 128.727 20.3597C128.78 20.3597 128.828 20.3662 128.881 20.3728L129.783 20.4252L129.998 20.4449L129.985 20.34L129.884 19.9138Z" fill="#878381"/>
<path d="M159.173 19.1723C159.173 19.1199 159.173 19.0609 159.173 19.0084H159.179V14.8317C159.179 11.8614 156.703 9.45508 153.661 9.45508C151.958 9.45508 150.444 10.2026 149.435 11.3762V10.9566C149.448 10.7927 149.435 10.7206 149.435 10.5763C149.428 10.1108 149.105 9.83538 148.688 9.71735C148.674 9.7108 148.667 9.7108 148.661 9.7108V9.70424L148.25 9.57966L148.142 9.55999L148.149 9.76981V10.655C148.149 10.7074 148.149 10.7599 148.149 10.8123V18.7855H148.136C148.136 18.8969 148.136 19.0084 148.136 19.1199L148.149 20.0051L148.142 20.2149L148.25 20.1952L148.661 20.0706V20.0641C148.667 20.0575 148.681 20.0575 148.688 20.0575C149.098 19.9329 149.414 19.651 149.421 19.192C149.421 19.1264 149.421 19.0674 149.428 19.015H149.435V14.8383C149.435 12.563 151.326 10.714 153.661 10.714C155.996 10.714 157.887 12.563 157.887 14.8383V18.8379V18.8642C157.874 19.0412 157.88 19.1068 157.887 19.2576C157.894 19.7231 158.217 19.9985 158.634 20.1165C158.648 20.1165 158.654 20.1231 158.661 20.1231V20.1296L159.072 20.2542L159.173 20.2739V20.0641V19.1723Z" fill="#878381"/>
<path d="M133.302 18.8441V18.7916V13.4412V11.7627V10.9234V10.8841V10.8185C133.316 10.6546 133.309 10.589 133.302 10.4447C133.295 9.98576 132.972 9.70382 132.562 9.57924C132.548 9.57268 132.542 9.57268 132.535 9.57268V9.56613L132.124 9.44155L132.023 9.42188V9.63169V10.5169C132.023 10.5956 132.023 10.6677 132.023 10.7464V11.7561V13.4347V19.0604C132.023 19.0998 132.023 19.1457 132.023 19.1916V20.0768V20.2866L132.124 20.2669L132.535 20.1423V20.1358C132.548 20.1358 132.555 20.1358 132.562 20.1292C132.972 20.0046 133.295 19.7292 133.302 19.2637C133.302 19.1129 133.316 19.0473 133.302 18.8769V18.8441Z" fill="#878381"/>
<path d="M132.744 8.78626C132.751 8.78626 132.764 8.79282 132.771 8.79282L133.181 8.9174L133.289 8.93707L133.282 8.72725V7.84863C133.282 7.83552 133.282 7.81585 133.282 7.80273H131.99C131.997 7.83552 131.997 7.87486 131.997 7.92076C132.004 8.38629 132.327 8.66168 132.744 8.78626Z" fill="#878381"/>
<path d="M66.1065 19.5198C66.093 19.5067 66.093 19.5002 66.093 19.487C65.9315 19.0215 65.4537 18.733 64.9692 18.7658H59.895L63.1791 15.9988C65.2922 14.2219 66.1267 12.904 66.1267 11.2516C66.1267 9.06821 64.3097 7.66504 62.136 7.66504C60.9784 7.66504 60.0228 7.97977 59.2153 8.52399C58.8922 8.74692 58.5961 9.00264 58.3135 9.29114L58.2125 9.41572L57.7347 10.0124L57.3848 10.4451L57.9501 10.6419V10.6353C57.9568 10.6418 57.9703 10.6484 57.977 10.6484C58.1721 10.714 58.374 10.7205 58.5625 10.6746C58.7576 10.6222 58.9461 10.5238 59.0807 10.373C59.8748 9.48129 60.8169 8.90428 62.0821 8.90428C63.4146 8.90428 64.6865 9.77635 64.6865 11.2648C64.6865 12.4712 63.9597 13.6449 62.1898 15.1202L57.6943 18.851C57.5059 18.9756 57.3848 19.192 57.3915 19.428C57.3982 19.8018 57.7145 20.0903 58.0981 20.0837C58.1183 20.0837 58.1385 20.0772 58.152 20.0772H63.4617H66.0729H66.3017L66.2613 19.9329L66.1065 19.5198Z" fill="#F45F5B"/>
<path d="M56.0524 7.47475C56.0389 7.47475 56.0255 7.47475 56.0187 7.47475C55.4265 7.47475 54.9353 7.88127 54.8276 8.41894L54.8074 8.47795L54.4507 9.49426L54.3027 9.90734L51.6848 17.3559L48.367 7.48131H46.7788L43.461 17.3559L40.3317 8.43205C40.224 7.89439 39.7328 7.48131 39.1473 7.48131C39.1338 7.48131 39.1204 7.48131 39.1069 7.48131V7.47475H38.3936L42.6535 19.618C42.7275 19.9393 43.0236 20.1754 43.3736 20.1754C43.7033 20.1754 43.9792 19.9656 44.0735 19.6771L47.5729 9.291L51.0522 19.6771C51.1464 19.9656 51.4223 20.1754 51.7521 20.1754C52.0953 20.1754 52.3847 19.9459 52.4654 19.6312L55.9043 9.84833L56.7523 7.45508L56.0524 7.47475Z" fill="#F45F5B"/>
<path d="M76.9212 9.39549C75.7704 8.36606 74.3841 7.65137 72.5267 7.65137C70.1174 7.65137 68.3273 9.17911 68.3273 11.1331C68.3273 13.2444 69.9155 14.0115 72.4325 14.582C74.6196 15.0737 75.8041 15.5917 75.8041 16.89C75.8041 17.9915 74.8215 19.021 72.8901 19.021C71.2749 19.021 70.0569 18.4046 69.0474 17.4998C69.0339 17.4866 69.0205 17.4801 69.0137 17.4735C68.9263 17.4014 68.8388 17.3555 68.7513 17.3162C68.4215 17.1785 68.0716 17.2506 67.7486 17.4407C67.7351 17.4473 67.7284 17.4539 67.7216 17.4604L67.3178 17.6965L67.2236 17.7686L67.4053 17.9128L67.9033 18.3522C69.1618 19.5586 70.7837 20.2864 72.843 20.2864C75.7569 20.2864 77.2509 18.7062 77.2509 16.7719C77.2509 14.6213 75.5349 13.7886 73.1525 13.2378C71.0192 12.7395 69.7809 12.2936 69.7809 11.0347C69.7809 9.91348 70.9115 8.9234 72.4594 8.9234C73.5832 8.9234 74.6533 9.35615 75.5887 10.0905L75.7166 10.1954C75.831 10.2872 75.9454 10.3856 76.0531 10.4839V10.4774C76.4501 10.8052 76.9077 10.7593 77.3182 10.5167C77.325 10.5102 77.3384 10.5036 77.3452 10.497V10.5036L77.7489 10.261L77.8432 10.1954L77.6615 10.0446L76.9212 9.39549Z" fill="#F45F5B"/>
<path d="M41.812 34.6855C41.4823 34.6855 41.1727 34.6396 40.89 34.5412C40.6007 34.4429 40.3517 34.3117 40.143 34.1347C39.9344 33.9642 39.7729 33.761 39.672 33.5249C39.6249 33.4397 39.6249 33.361 39.6652 33.2823C39.7123 33.2102 39.7796 33.1577 39.8873 33.1315C39.9613 33.1118 40.0421 33.1184 40.1161 33.1577C40.1902 33.1971 40.2507 33.2561 40.2844 33.3348C40.3584 33.4725 40.4728 33.6036 40.6209 33.7151C40.7689 33.8265 40.9439 33.9183 41.1458 33.9773C41.3477 34.0429 41.5698 34.0691 41.8053 34.0691C42.0745 34.0691 42.31 34.0298 42.5254 33.938C42.734 33.8528 42.9022 33.7282 43.0301 33.5708C43.1512 33.4069 43.2185 33.2167 43.2185 32.9807C43.2185 32.6922 43.1041 32.4365 42.8753 32.2136C42.6465 31.9972 42.2898 31.8595 41.7918 31.8005C41.1794 31.7283 40.6949 31.5448 40.3517 31.2497C40.0084 30.9546 39.8267 30.5875 39.8267 30.1481C39.8267 29.8334 39.9142 29.5646 40.0892 29.3351C40.2642 29.1056 40.5065 28.9286 40.8093 28.8105C41.1121 28.686 41.4621 28.627 41.8457 28.627C42.1418 28.627 42.4042 28.6729 42.633 28.7581C42.8619 28.8433 43.0705 28.9614 43.2387 29.1056C43.4137 29.2499 43.555 29.4138 43.6694 29.5974C43.73 29.6892 43.7502 29.7744 43.7367 29.8596C43.7165 29.9449 43.6694 30.0039 43.5954 30.0498C43.5146 30.0891 43.4272 30.0957 43.3329 30.0695C43.2455 30.0432 43.1714 29.9908 43.1311 29.9055C43.057 29.7875 42.9561 29.676 42.8417 29.5711C42.7273 29.4662 42.5859 29.3875 42.4177 29.3285C42.2495 29.2695 42.0543 29.2367 41.8322 29.2302C41.4352 29.2302 41.1121 29.3089 40.8564 29.4728C40.6007 29.6367 40.4795 29.8728 40.4795 30.1875C40.4795 30.3514 40.5266 30.5022 40.6141 30.6465C40.7016 30.7907 40.8564 30.9087 41.0717 31.0136C41.2871 31.112 41.5765 31.1907 41.9466 31.2366C42.5859 31.3153 43.0638 31.5054 43.3868 31.8005C43.7098 32.0955 43.8646 32.4889 43.8646 32.9676C43.8646 33.243 43.8108 33.4856 43.7031 33.6954C43.5954 33.9052 43.4473 34.0823 43.2589 34.2265C43.0705 34.3708 42.8484 34.4757 42.5994 34.5478C42.3504 34.6461 42.0879 34.6855 41.812 34.6855Z" fill="black"/>
<path d="M48.1985 34.6529C47.8351 34.6529 47.5053 34.5807 47.2226 34.4299C46.9333 34.2791 46.7112 34.0627 46.5429 33.7808C46.3747 33.4923 46.2939 33.1448 46.2939 32.7251V30.804C46.2939 30.7122 46.3276 30.6401 46.3882 30.5811C46.4487 30.522 46.5295 30.4893 46.617 30.4893C46.7112 30.4893 46.7852 30.522 46.8458 30.5811C46.9063 30.6401 46.94 30.7187 46.94 30.804V32.7251C46.94 33.0333 47.0006 33.2825 47.115 33.4726C47.2361 33.6628 47.3909 33.8136 47.5928 33.9119C47.7947 34.0103 48.0235 34.0562 48.2725 34.0562C48.5148 34.0562 48.7368 34.0103 48.932 33.9185C49.1272 33.8267 49.2819 33.7021 49.3964 33.5448C49.5108 33.3874 49.5646 33.2038 49.5646 33.0005H50.0088C49.9953 33.3153 49.9145 33.5972 49.753 33.8464C49.5915 34.0955 49.3762 34.2922 49.1002 34.4365C48.8378 34.5807 48.5349 34.6529 48.1985 34.6529ZM49.9011 34.607C49.8001 34.607 49.7261 34.5807 49.6655 34.5217C49.605 34.4627 49.5781 34.384 49.5781 34.2857V30.804C49.5781 30.7056 49.605 30.6335 49.6655 30.5745C49.7261 30.5155 49.8001 30.4893 49.9011 30.4893C50.002 30.4893 50.0761 30.5155 50.1434 30.5745C50.2039 30.6335 50.2376 30.7122 50.2376 30.804V34.2857C50.2376 34.384 50.2039 34.4627 50.1434 34.5217C50.0761 34.5807 50.002 34.607 49.9011 34.607Z" fill="black"/>
<path d="M54.4507 34.6466C54.1277 34.6466 53.8181 34.5941 53.5153 34.4892C53.2124 34.3843 52.9702 34.2401 52.7952 34.0499C52.7346 33.9843 52.7077 33.9122 52.7212 33.827C52.7346 33.7417 52.775 33.6696 52.8423 33.6172C52.9231 33.5581 53.0105 33.5319 53.0913 33.545C53.1788 33.5581 53.2461 33.5909 53.3067 33.6499C53.4211 33.7811 53.5758 33.886 53.7777 33.9647C53.9796 34.0434 54.2017 34.0827 54.444 34.0827C54.8007 34.0827 55.0631 34.0237 55.2314 33.9057C55.3996 33.7876 55.4871 33.6434 55.4938 33.4663C55.4938 33.2959 55.4131 33.1516 55.2448 33.0336C55.0766 32.9156 54.7939 32.8303 54.3901 32.7648C53.872 32.6795 53.4884 32.5353 53.2461 32.332C53.0038 32.1288 52.8894 31.8927 52.8894 31.6108C52.8894 31.355 52.9634 31.1387 53.1048 30.9682C53.2461 30.7977 53.4413 30.6666 53.6701 30.5813C53.9056 30.4961 54.1613 30.4502 54.4305 30.4502C54.7737 30.4502 55.0766 30.5092 55.3256 30.6207C55.5813 30.7321 55.7832 30.8829 55.938 31.0797C55.9918 31.1518 56.0187 31.2239 56.012 31.3026C56.0053 31.3813 55.9649 31.4403 55.8841 31.4862C55.8169 31.5321 55.7361 31.5452 55.6486 31.5321C55.5611 31.519 55.4804 31.4796 55.4198 31.4141C55.2919 31.2764 55.1439 31.178 54.9756 31.119C54.8074 31.0534 54.6257 31.0272 54.4103 31.0272C54.1411 31.0272 53.9258 31.0797 53.7575 31.1846C53.5893 31.2895 53.5085 31.4206 53.5085 31.578C53.5085 31.6894 53.5355 31.7812 53.596 31.8665C53.6566 31.9452 53.7643 32.0173 53.9123 32.0829C54.0671 32.1484 54.2825 32.2009 54.5651 32.2533C54.9487 32.3189 55.2583 32.4107 55.4804 32.5287C55.7024 32.6467 55.864 32.7844 55.9582 32.9418C56.0524 33.0992 56.0995 33.2696 56.0995 33.4598C56.0995 33.6958 56.0322 33.9057 55.8976 34.0827C55.763 34.2597 55.5678 34.404 55.3188 34.5089C55.0833 34.5941 54.7872 34.6466 54.4507 34.6466Z" fill="black"/>
<path d="M58.2257 31.1839C58.1382 31.1839 58.0642 31.1576 58.0103 31.1052C57.9565 31.0527 57.9229 30.9871 57.9229 30.915C57.9229 30.8363 57.9498 30.7708 58.0103 30.7183C58.0642 30.6659 58.1382 30.6396 58.2257 30.6396H60.1369C60.2244 30.6396 60.2984 30.6659 60.3523 30.7183C60.4061 30.7708 60.4398 30.8363 60.4398 30.915C60.4398 30.9871 60.4129 31.0527 60.3523 31.1052C60.2984 31.1576 60.2244 31.1839 60.1369 31.1839H58.2257ZM60.0831 34.6065C59.8139 34.6065 59.5784 34.541 59.363 34.4164C59.1544 34.2918 58.9862 34.1148 58.865 33.8984C58.7439 33.6755 58.6833 33.4263 58.6833 33.1509V29.4856C58.6833 29.3938 58.7102 29.3217 58.7708 29.2627C58.8314 29.2037 58.9054 29.1709 59.0063 29.1709C59.1006 29.1709 59.1746 29.2037 59.2352 29.2627C59.2957 29.3217 59.3294 29.4004 59.3294 29.4856V33.1509C59.3294 33.387 59.4034 33.5837 59.5447 33.741C59.686 33.8984 59.8677 33.9771 60.0831 33.9771H60.3119C60.3927 33.9771 60.4667 34.0099 60.5205 34.0689C60.5744 34.1279 60.608 34.2066 60.608 34.2918C60.608 34.3902 60.5744 34.4623 60.5003 34.5213C60.433 34.5803 60.3388 34.6065 60.2312 34.6065H60.0831Z" fill="black"/>
<path d="M64.7401 34.6459C64.3497 34.6459 63.9998 34.5541 63.6902 34.3705C63.3807 34.1869 63.1384 33.9377 62.9567 33.623C62.775 33.3083 62.6875 32.9477 62.6875 32.5542C62.6875 32.1543 62.7817 31.7937 62.9701 31.4789C63.1586 31.1642 63.4143 30.915 63.7373 30.7314C64.0604 30.5479 64.4238 30.4561 64.8276 30.4561C65.2381 30.4561 65.6015 30.5479 65.9245 30.7314C66.2475 30.915 66.5033 31.1642 66.6917 31.4789C66.8801 31.7937 66.9743 32.1543 66.9811 32.5542L66.7186 32.6854C66.7186 33.0591 66.6311 33.3935 66.4562 33.6886C66.2812 33.9836 66.0456 34.2197 65.7495 34.3902C65.4467 34.5606 65.1102 34.6459 64.7401 34.6459ZM64.8276 34.0689C65.1169 34.0689 65.3727 34.0033 65.5947 33.8722C65.8168 33.741 65.9985 33.5574 66.1264 33.328C66.261 33.0985 66.3216 32.8362 66.3216 32.5542C66.3216 32.2657 66.2543 32.0035 66.1264 31.774C65.9918 31.5445 65.8168 31.3609 65.5947 31.2298C65.3727 31.0921 65.1169 31.0265 64.8276 31.0265C64.5449 31.0265 64.2892 31.0921 64.0604 31.2298C63.8316 31.3675 63.6499 31.5445 63.5153 31.774C63.3807 32.0035 63.3134 32.2657 63.3134 32.5542C63.3134 32.8427 63.3807 33.0985 63.5153 33.328C63.6499 33.5574 63.8316 33.741 64.0604 33.8722C64.2892 34.0033 64.5449 34.0689 64.8276 34.0689ZM66.6446 34.6065C66.5436 34.6065 66.4629 34.5803 66.4023 34.5213C66.335 34.4623 66.3081 34.3902 66.3081 34.2918V33.046L66.4562 32.3903L66.9743 32.5477V34.2918C66.9743 34.3902 66.9407 34.4623 66.8801 34.5213C66.8196 34.5803 66.7388 34.6065 66.6446 34.6065Z" fill="black"/>
<path d="M69.8952 29.7353C69.7741 29.7353 69.6664 29.6894 69.5789 29.6042C69.4914 29.519 69.4443 29.4141 69.4443 29.2895C69.4443 29.1649 69.4914 29.06 69.5789 28.9813C69.6664 28.9026 69.7741 28.8633 69.8952 28.8633C70.0164 28.8633 70.1173 28.9026 70.2115 28.9813C70.299 29.06 70.3461 29.1649 70.3461 29.2895C70.3461 29.4075 70.299 29.5124 70.2115 29.6042C70.124 29.696 70.0231 29.7353 69.8952 29.7353ZM69.902 34.6071C69.801 34.6071 69.727 34.5809 69.6597 34.5218C69.5991 34.4628 69.5655 34.3842 69.5655 34.2858V30.8107C69.5655 30.7123 69.5991 30.6336 69.6597 30.5746C69.7203 30.5156 69.801 30.4894 69.902 30.4894C70.0029 30.4894 70.0769 30.5156 70.1375 30.5746C70.1981 30.6336 70.225 30.7123 70.225 30.8107V34.2858C70.225 34.3842 70.1981 34.4628 70.1375 34.5218C70.0837 34.5809 70.0029 34.6071 69.902 34.6071Z" fill="black"/>
<path d="M73.3942 34.607C73.2933 34.607 73.2125 34.5807 73.1519 34.5217C73.0914 34.4627 73.0645 34.3906 73.0645 34.2922V30.8105C73.0645 30.7122 73.0914 30.6335 73.1519 30.5745C73.2125 30.5155 73.2933 30.4893 73.3942 30.4893C73.4952 30.4893 73.5692 30.5155 73.6298 30.5745C73.6903 30.6335 73.7172 30.7122 73.7172 30.8105V34.2922C73.7172 34.3906 73.6903 34.4627 73.6298 34.5217C73.5692 34.5807 73.4884 34.607 73.3942 34.607ZM76.6716 34.607C76.5707 34.607 76.4966 34.5742 76.4293 34.5152C76.3688 34.4562 76.3351 34.3775 76.3351 34.2922V32.3711C76.3351 32.0629 76.2745 31.8137 76.1601 31.6236C76.0457 31.4334 75.8842 31.2826 75.6823 31.1843C75.4804 31.0859 75.2516 31.04 74.9959 31.04C74.7536 31.04 74.5383 31.0859 74.3431 31.1777C74.1479 31.2695 73.9932 31.3941 73.8855 31.5515C73.7711 31.7088 73.7172 31.8924 73.7172 32.0957H73.2663C73.2798 31.781 73.3606 31.499 73.5288 31.2499C73.6903 31.0007 73.9057 30.804 74.1816 30.6597C74.4575 30.5155 74.7604 30.4434 75.0968 30.4434C75.4602 30.4434 75.7833 30.5155 76.0659 30.6663C76.3553 30.8171 76.5774 31.0335 76.7456 31.3154C76.9139 31.6039 76.9946 31.9514 76.9946 32.3711V34.2922C76.9946 34.384 76.961 34.4562 76.9004 34.5152C76.8398 34.5742 76.7658 34.607 76.6716 34.607Z" fill="black"/>
<path d="M81.4774 34.6459C81.0871 34.6459 80.7371 34.5541 80.4275 34.3705C80.118 34.1869 79.8757 33.9377 79.694 33.623C79.5123 33.3083 79.4248 32.9477 79.4248 32.5542C79.4248 32.1543 79.519 31.7937 79.7075 31.4789C79.8959 31.1642 80.1516 30.915 80.4747 30.7314C80.7977 30.5479 81.1611 30.4561 81.5649 30.4561C81.9754 30.4561 82.3388 30.5479 82.6618 30.7314C82.9848 30.915 83.2406 31.1642 83.429 31.4789C83.6174 31.7937 83.7117 32.1543 83.7184 32.5542L83.4559 32.6854C83.4559 33.0591 83.3684 33.3935 83.1935 33.6886C83.0185 33.9836 82.7829 34.2197 82.4868 34.3902C82.1907 34.5606 81.8542 34.6459 81.4774 34.6459ZM81.5716 34.0689C81.861 34.0689 82.1167 34.0033 82.3388 33.8722C82.5609 33.741 82.7426 33.5574 82.8704 33.328C83.005 33.0985 83.0656 32.8362 83.0656 32.5542C83.0656 32.2657 82.9983 32.0035 82.8704 31.774C82.7358 31.5445 82.5609 31.3609 82.3388 31.2298C82.1167 31.0921 81.861 31.0265 81.5716 31.0265C81.2889 31.0265 81.0332 31.0921 80.8044 31.2298C80.5756 31.3675 80.3939 31.5445 80.2593 31.774C80.1247 32.0035 80.0574 32.2657 80.0574 32.5542C80.0574 32.8427 80.1247 33.0985 80.2593 33.328C80.3939 33.5574 80.5756 33.741 80.8044 33.8722C81.0265 34.0033 81.2889 34.0689 81.5716 34.0689ZM83.3886 34.6065C83.2877 34.6065 83.2069 34.5803 83.1464 34.5213C83.0791 34.4623 83.0521 34.3902 83.0521 34.2918V33.046L83.2002 32.3903L83.7184 32.5477V34.2918C83.7184 34.3902 83.6847 34.4623 83.6242 34.5213C83.5569 34.5803 83.4828 34.6065 83.3886 34.6065Z" fill="black"/>
<path d="M88.3345 34.6464C87.9307 34.6464 87.574 34.5546 87.251 34.371C86.928 34.1874 86.679 33.9383 86.4905 33.6236C86.3021 33.3088 86.2079 32.9548 86.2012 32.5613V29.0469C86.2012 28.9485 86.2281 28.8698 86.2887 28.8108C86.3492 28.7518 86.43 28.7256 86.5309 28.7256C86.6319 28.7256 86.7059 28.7518 86.7665 28.8108C86.827 28.8698 86.854 28.9485 86.854 29.0469V31.2041C87.0222 30.9811 87.2443 30.7976 87.5202 30.6599C87.7961 30.5222 88.099 30.45 88.4354 30.45C88.8258 30.45 89.1757 30.5418 89.4853 30.7254C89.7948 30.909 90.0371 31.1582 90.2188 31.4729C90.3938 31.7876 90.488 32.1483 90.488 32.5417C90.488 32.9416 90.3938 33.3023 90.2054 33.617C90.0169 33.9317 89.7612 34.1809 89.4382 34.3645C89.1151 34.5546 88.7517 34.6464 88.3345 34.6464ZM88.3345 34.0694C88.6239 34.0694 88.8796 34.0039 89.1151 33.8662C89.344 33.7285 89.5257 33.5514 89.6535 33.3219C89.7881 33.0924 89.8487 32.8302 89.8487 32.5417C89.8487 32.2532 89.7814 31.9975 89.6535 31.768C89.5189 31.5385 89.344 31.3549 89.1151 31.2237C88.8863 31.0926 88.6239 31.027 88.3345 31.027C88.0586 31.027 87.8029 31.0926 87.574 31.2237C87.3452 31.3549 87.1635 31.5385 87.0357 31.768C86.9078 31.9975 86.8405 32.2597 86.8405 32.5417C86.8405 32.8302 86.9078 33.0924 87.0357 33.3219C87.1635 33.5514 87.3452 33.735 87.574 33.8662C87.8029 34.0039 88.0586 34.0694 88.3345 34.0694Z" fill="black"/>
<path d="M93.9407 34.6068C93.7253 34.6068 93.5302 34.5478 93.3687 34.4363C93.2004 34.3249 93.0726 34.1675 92.9851 33.9642C92.8909 33.761 92.8438 33.5315 92.8438 33.2692V29.0335C92.8438 28.9351 92.8707 28.863 92.9312 28.804C92.9918 28.745 93.0658 28.7188 93.1668 28.7188C93.261 28.7188 93.335 28.745 93.3956 28.804C93.4562 28.863 93.4831 28.9417 93.4831 29.0335V33.2692C93.4831 33.4725 93.5235 33.6429 93.6109 33.7806C93.6984 33.9118 93.8061 33.9773 93.9407 33.9773H94.1359C94.2166 33.9773 94.2839 34.0036 94.3378 34.0626C94.3916 34.1216 94.4118 34.1937 94.4118 34.2855C94.4118 34.3839 94.3714 34.456 94.2974 34.515C94.2233 34.574 94.1291 34.6002 94.008 34.6002H93.9407V34.6068Z" fill="black"/>
<path d="M98.2607 34.6466C97.8367 34.6466 97.4666 34.5548 97.1369 34.3777C96.8138 34.2007 96.5581 33.9516 96.3697 33.6368C96.1812 33.3221 96.0938 32.9615 96.0938 32.5484C96.0938 32.1353 96.1812 31.7747 96.3562 31.46C96.5312 31.1452 96.7735 30.8961 97.0763 30.719C97.3859 30.5354 97.7358 30.4502 98.1396 30.4502C98.5299 30.4502 98.8731 30.5354 99.1625 30.7125C99.4519 30.8829 99.6807 31.1256 99.8355 31.4337C99.9903 31.7419 100.071 32.0894 100.071 32.4828C100.071 32.5681 100.044 32.6402 99.9835 32.6926C99.9297 32.7451 99.8557 32.7713 99.7682 32.7713H96.5379V32.2533H99.8086L99.4788 32.4763C99.4855 32.2009 99.4317 31.9517 99.324 31.7288C99.2164 31.5058 99.0616 31.3354 98.8597 31.2108C98.6578 31.0862 98.4155 31.0206 98.1396 31.0206C97.8435 31.0206 97.5878 31.0862 97.3724 31.2173C97.1503 31.3485 96.9888 31.5321 96.8677 31.7616C96.7533 31.9976 96.6927 32.2599 96.6927 32.5549C96.6927 32.85 96.76 33.1123 96.8946 33.3483C97.0292 33.5778 97.2109 33.7614 97.4464 33.8925C97.682 34.0237 97.9512 34.0893 98.254 34.0893C98.429 34.0893 98.6107 34.0565 98.7924 33.9975C98.9741 33.9384 99.1221 33.8598 99.2298 33.7745C99.2904 33.7286 99.3644 33.7024 99.4452 33.7024C99.5259 33.7024 99.5932 33.7221 99.6403 33.768C99.7143 33.8335 99.7547 33.9057 99.7615 33.9778C99.7615 34.0499 99.7278 34.1155 99.6538 34.1745C99.4855 34.3122 99.2702 34.4302 99.001 34.522C98.752 34.6007 98.4963 34.6466 98.2607 34.6466Z" fill="black"/>
<path d="M106.424 34.6068C106.323 34.6068 106.249 34.574 106.182 34.515C106.122 34.456 106.088 34.3773 106.088 34.279V29.0466C106.088 28.9482 106.122 28.8761 106.182 28.8105C106.243 28.7515 106.323 28.7188 106.424 28.7188C106.525 28.7188 106.599 28.7515 106.667 28.8105C106.727 28.8696 106.761 28.9482 106.761 29.0466V34.2855C106.761 34.3839 106.727 34.456 106.667 34.5216C106.599 34.574 106.519 34.6068 106.424 34.6068Z" fill="black"/>
<path d="M109.284 29.3154C109.19 29.3154 109.116 29.2892 109.062 29.2302C109.008 29.1777 108.975 29.1056 108.975 29.0204C108.975 28.9286 109.002 28.8564 109.062 28.804C109.116 28.7515 109.197 28.7188 109.284 28.7188H113.517C113.611 28.7188 113.685 28.745 113.739 28.804C113.793 28.8564 113.827 28.9351 113.827 29.0204C113.827 29.1056 113.8 29.1777 113.739 29.2302C113.685 29.2826 113.605 29.3154 113.517 29.3154H109.284ZM111.397 34.6068C111.303 34.6068 111.229 34.574 111.162 34.515C111.094 34.4494 111.068 34.3773 111.068 34.2855V28.7188H111.734V34.279C111.734 34.3708 111.7 34.4429 111.64 34.5085C111.572 34.574 111.492 34.6068 111.397 34.6068Z" fill="black"/>
<path d="M121.512 34.6855C121.182 34.6855 120.873 34.6396 120.59 34.5412C120.301 34.4429 120.052 34.3117 119.843 34.1347C119.635 33.9642 119.473 33.761 119.372 33.5249C119.325 33.4397 119.325 33.361 119.365 33.2823C119.413 33.2102 119.48 33.1577 119.588 33.1315C119.668 33.1118 119.742 33.1184 119.816 33.1577C119.89 33.1971 119.951 33.2561 119.985 33.3348C120.065 33.4725 120.173 33.6036 120.321 33.7151C120.469 33.8265 120.644 33.9183 120.846 33.9773C121.048 34.0429 121.27 34.0691 121.505 34.0691C121.775 34.0691 122.01 34.0298 122.226 33.938C122.434 33.8528 122.602 33.7282 122.73 33.5708C122.851 33.4069 122.919 33.2167 122.919 32.9807C122.919 32.6922 122.804 32.4365 122.576 32.2136C122.347 31.9972 121.99 31.8595 121.492 31.8005C120.88 31.7283 120.395 31.5448 120.052 31.2497C119.709 30.9546 119.527 30.5875 119.527 30.1481C119.527 29.8334 119.614 29.5646 119.789 29.3351C119.964 29.1056 120.207 28.9286 120.509 28.8105C120.812 28.686 121.162 28.627 121.546 28.627C121.842 28.627 122.104 28.6729 122.333 28.7581C122.562 28.8433 122.771 28.9614 122.939 29.1056C123.114 29.2499 123.255 29.4138 123.37 29.5974C123.43 29.6892 123.45 29.7744 123.437 29.8596C123.417 29.9449 123.37 30.0039 123.296 30.0498C123.215 30.0891 123.127 30.0957 123.033 30.0695C122.946 30.0432 122.872 29.9908 122.831 29.9055C122.75 29.7875 122.656 29.676 122.542 29.5711C122.427 29.4662 122.286 29.3875 122.118 29.3285C121.95 29.2695 121.754 29.2367 121.532 29.2302C121.135 29.2302 120.812 29.3089 120.557 29.4728C120.301 29.6367 120.18 29.8728 120.18 30.1875C120.18 30.3514 120.227 30.5022 120.314 30.6465C120.402 30.7907 120.557 30.9087 120.772 31.0136C120.987 31.112 121.277 31.1907 121.647 31.2366C122.286 31.3153 122.764 31.5054 123.087 31.8005C123.41 32.0955 123.565 32.4889 123.565 32.9676C123.565 33.243 123.511 33.4856 123.403 33.6954C123.296 33.9052 123.148 34.0823 122.959 34.2265C122.771 34.3708 122.549 34.4757 122.3 34.5478C122.057 34.6461 121.795 34.6855 121.512 34.6855Z" fill="black"/>
<path d="M126.512 29.7353C126.391 29.7353 126.284 29.6894 126.196 29.6042C126.109 29.519 126.062 29.4141 126.062 29.2895C126.062 29.1649 126.109 29.06 126.196 28.9813C126.284 28.9026 126.391 28.8633 126.512 28.8633C126.634 28.8633 126.734 28.9026 126.829 28.9813C126.916 29.06 126.963 29.1649 126.963 29.2895C126.963 29.4075 126.916 29.5124 126.829 29.6042C126.741 29.696 126.634 29.7353 126.512 29.7353ZM126.519 34.6071C126.418 34.6071 126.344 34.5809 126.277 34.5218C126.216 34.4628 126.183 34.3842 126.183 34.2858V30.8107C126.183 30.7123 126.216 30.6336 126.277 30.5746C126.337 30.5156 126.418 30.4894 126.519 30.4894C126.62 30.4894 126.694 30.5156 126.755 30.5746C126.815 30.6336 126.842 30.7123 126.842 30.8107V34.2858C126.842 34.3842 126.815 34.4628 126.755 34.5218C126.694 34.5809 126.62 34.6071 126.519 34.6071Z" fill="black"/>
<path d="M130.006 34.6067C129.905 34.6067 129.824 34.5805 129.763 34.5214C129.703 34.4624 129.676 34.3903 129.676 34.292V30.8103C129.676 30.7119 129.703 30.6398 129.763 30.5742C129.824 30.5152 129.905 30.4824 130.006 30.4824C130.106 30.4824 130.181 30.5152 130.241 30.5742C130.302 30.6332 130.329 30.7119 130.329 30.8103V34.292C130.329 34.3903 130.302 34.4624 130.241 34.5214C130.187 34.5805 130.106 34.6067 130.006 34.6067ZM132.677 34.6067C132.583 34.6067 132.509 34.5805 132.448 34.5214C132.388 34.4624 132.354 34.3903 132.354 34.292V32.1282C132.354 31.7807 132.26 31.5118 132.078 31.3217C131.897 31.1315 131.661 31.0332 131.378 31.0332C131.076 31.0332 130.827 31.1315 130.631 31.3283C130.436 31.525 130.335 31.7807 130.335 32.0954H129.884C129.898 31.7676 129.965 31.4791 130.1 31.2299C130.234 30.9807 130.423 30.784 130.658 30.6463C130.894 30.5086 131.163 30.4365 131.473 30.4365C131.769 30.4365 132.038 30.5021 132.267 30.6398C132.496 30.7775 132.677 30.9676 132.805 31.2233C132.933 31.4791 133 31.7741 133 32.1216V34.2854C133 34.3837 132.973 34.4559 132.913 34.5149C132.852 34.5805 132.778 34.6067 132.677 34.6067ZM135.349 34.6067C135.248 34.6067 135.174 34.5805 135.107 34.5214C135.046 34.4624 135.012 34.3903 135.012 34.292V32.1282C135.012 31.7807 134.925 31.5118 134.743 31.3217C134.562 31.1315 134.326 31.0332 134.037 31.0332C133.734 31.0332 133.485 31.1315 133.29 31.3348C133.094 31.5381 133 31.8003 133 32.1282H132.435C132.442 31.7938 132.516 31.4987 132.657 31.243C132.798 30.9873 133 30.7906 133.256 30.6529C133.512 30.5152 133.801 30.4431 134.124 30.4431C134.42 30.4431 134.689 30.5086 134.918 30.6463C135.147 30.784 135.329 30.9742 135.463 31.2299C135.598 31.4856 135.659 31.7807 135.659 32.1282V34.292C135.659 34.3903 135.625 34.4624 135.564 34.5214C135.517 34.5805 135.436 34.6067 135.349 34.6067Z" fill="black"/>
<path d="M138.639 36.371C138.538 36.371 138.458 36.3448 138.397 36.2858C138.336 36.2268 138.31 36.1481 138.31 36.0497V32.5287C138.316 32.1353 138.411 31.7812 138.599 31.4665C138.787 31.1518 139.043 30.9026 139.359 30.719C139.682 30.5354 140.039 30.4502 140.443 30.4502C140.853 30.4502 141.224 30.542 141.547 30.7256C141.87 30.9092 142.125 31.1583 142.314 31.4731C142.502 31.7878 142.596 32.1484 142.596 32.5484C142.596 32.9484 142.509 33.3024 142.327 33.6172C142.146 33.9319 141.903 34.181 141.594 34.3646C141.284 34.5482 140.934 34.64 140.544 34.64C140.207 34.64 139.905 34.5679 139.629 34.4302C139.353 34.2925 139.131 34.1089 138.962 33.886V36.0432C138.962 36.1415 138.935 36.2202 138.875 36.2792C138.814 36.3448 138.74 36.371 138.639 36.371ZM140.443 34.0696C140.732 34.0696 140.988 34.004 141.224 33.8729C141.452 33.7417 141.634 33.5581 141.762 33.3287C141.897 33.0992 141.957 32.8369 141.957 32.5549C141.957 32.2664 141.89 32.0042 141.762 31.7747C141.634 31.5452 141.452 31.3616 141.224 31.2305C140.995 31.0928 140.739 31.0272 140.45 31.0272C140.167 31.0272 139.911 31.0928 139.682 31.2239C139.454 31.355 139.272 31.5386 139.144 31.7681C139.016 31.9976 138.949 32.2599 138.949 32.5549C138.949 32.8434 139.016 33.0992 139.144 33.3287C139.272 33.5581 139.454 33.7417 139.676 33.8729C139.905 34.004 140.16 34.0696 140.443 34.0696Z" fill="black"/>
<path d="M146.042 34.6068C145.827 34.6068 145.632 34.5478 145.47 34.4363C145.302 34.3249 145.174 34.1675 145.087 33.9642C144.992 33.761 144.945 33.5315 144.945 33.2692V29.0335C144.945 28.9351 144.972 28.863 145.033 28.804C145.093 28.745 145.167 28.7188 145.268 28.7188C145.363 28.7188 145.437 28.745 145.497 28.804C145.558 28.863 145.585 28.9417 145.585 29.0335V33.2692C145.585 33.4725 145.625 33.6429 145.712 33.7806C145.8 33.9118 145.908 33.9773 146.042 33.9773H146.237C146.318 33.9773 146.385 34.0036 146.439 34.0626C146.493 34.1216 146.513 34.1937 146.513 34.2855C146.513 34.3839 146.473 34.456 146.399 34.515C146.325 34.574 146.231 34.6002 146.11 34.6002H146.042V34.6068Z" fill="black"/>
<path d="M149.091 29.7353C148.969 29.7353 148.862 29.6894 148.774 29.6042C148.687 29.519 148.64 29.4141 148.64 29.2895C148.64 29.1649 148.687 29.06 148.774 28.9813C148.862 28.9026 148.969 28.8633 149.091 28.8633C149.212 28.8633 149.313 28.9026 149.407 28.9813C149.494 29.06 149.541 29.1649 149.541 29.2895C149.541 29.4075 149.494 29.5124 149.407 29.6042C149.319 29.696 149.212 29.7353 149.091 29.7353ZM149.097 34.6071C148.996 34.6071 148.922 34.5809 148.855 34.5218C148.794 34.4628 148.761 34.3842 148.761 34.2858V30.8107C148.761 30.7123 148.794 30.6336 148.855 30.5746C148.916 30.5156 148.996 30.4894 149.097 30.4894C149.198 30.4894 149.272 30.5156 149.333 30.5746C149.393 30.6336 149.42 30.7123 149.42 30.8107V34.2858C149.42 34.3842 149.393 34.4628 149.333 34.5218C149.272 34.5809 149.198 34.6071 149.097 34.6071Z" fill="black"/>
<path d="M151.998 31.1841C151.904 31.1841 151.83 31.1579 151.776 31.1054C151.722 31.053 151.695 30.9874 151.695 30.9153C151.695 30.8366 151.722 30.771 151.776 30.7186C151.83 30.6661 151.904 30.6399 151.998 30.6399H153.983C154.071 30.6399 154.145 30.6661 154.199 30.7186C154.253 30.771 154.28 30.8366 154.28 30.9153C154.28 30.9874 154.253 31.053 154.199 31.1054C154.145 31.1579 154.071 31.1841 153.983 31.1841H151.998ZM152.759 34.6068C152.678 34.6068 152.604 34.5806 152.543 34.5216C152.483 34.4626 152.449 34.3839 152.449 34.2855V30.5022C152.449 30.1481 152.516 29.8334 152.644 29.5646C152.772 29.2958 152.961 29.0925 153.21 28.9417C153.459 28.7909 153.755 28.7188 154.105 28.7188C154.205 28.7188 154.28 28.745 154.347 28.804C154.407 28.8564 154.441 28.9286 154.441 29.0073C154.441 29.0925 154.407 29.1646 154.347 29.2171C154.286 29.2695 154.205 29.3023 154.105 29.3023C153.889 29.3023 153.707 29.3482 153.553 29.4466C153.405 29.5449 153.29 29.6826 153.21 29.8531C153.129 30.0236 153.095 30.2268 153.095 30.4498V34.279C153.095 34.3773 153.068 34.456 153.008 34.515C152.947 34.5806 152.866 34.6068 152.759 34.6068Z" fill="black"/>
<path d="M156.204 29.7353C156.083 29.7353 155.975 29.6894 155.888 29.6042C155.8 29.519 155.753 29.4141 155.753 29.2895C155.753 29.1649 155.8 29.06 155.888 28.9813C155.975 28.9026 156.083 28.8633 156.204 28.8633C156.325 28.8633 156.426 28.9026 156.52 28.9813C156.608 29.06 156.655 29.1649 156.655 29.2895C156.655 29.4075 156.608 29.5124 156.52 29.6042C156.433 29.696 156.325 29.7353 156.204 29.7353ZM156.211 34.6071C156.11 34.6071 156.036 34.5809 155.968 34.5218C155.908 34.4628 155.874 34.3842 155.874 34.2858V30.8107C155.874 30.7123 155.908 30.6336 155.968 30.5746C156.029 30.5156 156.11 30.4894 156.211 30.4894C156.312 30.4894 156.386 30.5156 156.446 30.5746C156.507 30.6336 156.534 30.7123 156.534 30.8107V34.2858C156.534 34.3842 156.507 34.4628 156.446 34.5218C156.386 34.5809 156.312 34.6071 156.211 34.6071Z" fill="black"/>
<path d="M161.305 34.6466C160.881 34.6466 160.511 34.5548 160.181 34.3777C159.858 34.2007 159.602 33.9516 159.414 33.6368C159.225 33.3221 159.138 32.9615 159.138 32.5484C159.138 32.1353 159.225 31.7747 159.4 31.46C159.575 31.1452 159.817 30.8961 160.12 30.719C160.43 30.5354 160.78 30.4502 161.184 30.4502C161.574 30.4502 161.917 30.5354 162.206 30.7125C162.496 30.8829 162.725 31.1256 162.879 31.4337C163.034 31.7419 163.115 32.0894 163.115 32.4828C163.115 32.5681 163.088 32.6402 163.027 32.6926C162.974 32.7451 162.9 32.7713 162.812 32.7713H159.582V32.2533H162.853L162.523 32.4763C162.529 32.2009 162.476 31.9517 162.368 31.7288C162.26 31.5058 162.106 31.3354 161.904 31.2108C161.702 31.0862 161.459 31.0206 161.184 31.0206C160.887 31.0206 160.632 31.0862 160.416 31.2173C160.194 31.3485 160.033 31.5321 159.912 31.7616C159.797 31.9976 159.737 32.2599 159.737 32.5549C159.737 32.85 159.804 33.1123 159.939 33.3483C160.073 33.5778 160.255 33.7614 160.49 33.8925C160.726 34.0237 160.995 34.0893 161.298 34.0893C161.473 34.0893 161.655 34.0565 161.836 33.9975C162.018 33.9384 162.166 33.8598 162.274 33.7745C162.334 33.7286 162.408 33.7024 162.489 33.7024C162.57 33.7024 162.637 33.7221 162.684 33.768C162.758 33.8335 162.799 33.9057 162.805 33.9778C162.805 34.0499 162.772 34.1155 162.698 34.1745C162.529 34.3122 162.314 34.4302 162.045 34.522C161.796 34.6007 161.547 34.6466 161.305 34.6466Z" fill="black"/>
<path d="M167.234 34.6464C166.823 34.6464 166.46 34.5546 166.137 34.371C165.814 34.1874 165.558 33.9383 165.37 33.6236C165.181 33.3088 165.087 32.9482 165.087 32.5482C165.087 32.1483 165.174 31.7942 165.356 31.4795C165.538 31.1647 165.78 30.9156 166.09 30.732C166.399 30.5484 166.749 30.4566 167.139 30.4566C167.476 30.4566 167.779 30.5287 168.048 30.6664C168.317 30.8041 168.539 30.9877 168.708 31.2106V29.0469C168.708 28.9485 168.741 28.8698 168.802 28.8108C168.869 28.7518 168.943 28.7256 169.037 28.7256C169.138 28.7256 169.212 28.7518 169.28 28.8108C169.34 28.8698 169.374 28.9485 169.374 29.0469V32.5679C169.36 32.9613 169.266 33.3154 169.078 33.6236C168.889 33.9383 168.633 34.1874 168.317 34.371C167.994 34.5546 167.637 34.6464 167.234 34.6464ZM167.234 34.0694C167.523 34.0694 167.779 34.0039 168.001 33.8662C168.223 33.7285 168.405 33.5514 168.533 33.3219C168.667 33.0924 168.728 32.8302 168.728 32.5417C168.728 32.2532 168.66 31.9975 168.533 31.768C168.398 31.5385 168.223 31.3549 168.001 31.2237C167.779 31.0926 167.523 31.027 167.234 31.027C166.951 31.027 166.695 31.0926 166.467 31.2237C166.238 31.3549 166.056 31.5385 165.921 31.768C165.787 31.9975 165.72 32.2597 165.72 32.5417C165.72 32.8302 165.787 33.0924 165.921 33.3219C166.056 33.5514 166.238 33.735 166.467 33.8662C166.695 34.0039 166.951 34.0694 167.234 34.0694Z" fill="black"/>
</g>
<defs>
<linearGradient id="paint0_linear_443_53116" x1="-17.5566" y1="14.6074" x2="69.2933" y2="61.2504" gradientUnits="userSpaceOnUse">
<stop stop-color="#EFC402"/>
<stop offset="0.1174" stop-color="#EEAE1A"/>
<stop offset="0.3639" stop-color="#EB7757"/>
<stop offset="0.5699" stop-color="#E8458F"/>
<stop offset="0.7987" stop-color="#A64290"/>
<stop offset="1" stop-color="#683F90"/>
</linearGradient>
<linearGradient id="paint1_linear_443_53116" x1="-19.6873" y1="18.5862" x2="67.1525" y2="65.2238" gradientUnits="userSpaceOnUse">
<stop stop-color="#EFC402"/>
<stop offset="0.1174" stop-color="#EEAE1A"/>
<stop offset="0.3639" stop-color="#EB7757"/>
<stop offset="0.5699" stop-color="#E8458F"/>
<stop offset="0.7987" stop-color="#A64290"/>
<stop offset="1" stop-color="#683F90"/>
</linearGradient>
<linearGradient id="paint2_linear_443_53116" x1="-11.6204" y1="3.5561" x2="75.2272" y2="50.1979" gradientUnits="userSpaceOnUse">
<stop stop-color="#EFC402"/>
<stop offset="0.1174" stop-color="#EEAE1A"/>
<stop offset="0.3639" stop-color="#EB7757"/>
<stop offset="0.5699" stop-color="#E8458F"/>
<stop offset="0.7987" stop-color="#A64290"/>
<stop offset="1" stop-color="#683F90"/>
</linearGradient>
<clipPath id="clip0_443_53116">
<rect width="170" height="41" fill="white"/>
</clipPath>
</defs>
</svg>
